<svg id="Layer_1" data-name="Layer 1" xmlns="http://www.w3.org/2000/svg" viewBox="0 0 150 150"><defs><style>.cls-1{fill:#fff;}</style></defs><title>Artboard 1</title><path class="cls-1" d="M75,0c41.9,0,75,33.08,75,75s-33.08,75-75,75S0,116.92,0,75,33.1,0,75,0ZM33.77,71.69c.44-9.49,3.08-21.39,7.5-33.31a95.5,95.5,0,0,1-17.2-9.26,67.07,67.07,0,0,0-17,42.57ZM7.08,78.31a67,67,0,0,0,17,42.57,95.5,95.5,0,0,1,17.2-9.26C36.62,99.7,34,87.57,33.77,78.31ZM56,9.49a64,64,0,0,0-27.36,15,77,77,0,0,0,14.79,8.17A105.1,105.1,0,0,1,56,9.49Zm-27.36,116A61.28,61.28,0,0,0,56,140.28a93.47,93.47,0,0,1-12.36-23.15A75,75,0,0,0,28.68,125.51Zm43-78.75A76.91,76.91,0,0,1,47.22,40.6a98.42,98.42,0,0,0-6.83,31.11h31.3ZM40.37,78.31a103.15,103.15,0,0,0,6.83,31.11,76.56,76.56,0,0,1,24.49-6.18V78.31ZM71.69,6.85a36.11,36.11,0,0,0-6.83.67A132.66,132.66,0,0,0,49.21,35.07a81.65,81.65,0,0,0,22.48,4.86Zm0,103.22a83.86,83.86,0,0,0-22.27,4.63,121.1,121.1,0,0,0,15.44,27.8,37.74,37.74,0,0,0,6.83.65Zm6.62-70.14a81.78,81.78,0,0,0,22.5-4.86A133.73,133.73,0,0,0,85.16,7.5a37.83,37.83,0,0,0-6.83-.67v33.1Zm0,31.76h31.32a99,99,0,0,0-6.83-31.11,77.09,77.09,0,0,1-24.49,6.18Zm0,6.62v24.93a76.56,76.56,0,0,1,24.49,6.18,101.83,101.83,0,0,0,6.83-31.11Zm0,64.84a37.58,37.58,0,0,0,6.83-.65,121.1,121.1,0,0,0,15.44-27.8,83.84,83.84,0,0,0-22.29-4.63v33.08Zm43-118.66A64.09,64.09,0,0,0,94,9.49a105.1,105.1,0,0,1,12.57,23.17A76.14,76.14,0,0,0,121.32,24.49ZM94,140.28a61.3,61.3,0,0,0,27.34-14.77,73.5,73.5,0,0,0-15-8.38A92.76,92.76,0,0,1,94,140.28Zm49-68.59a66.85,66.85,0,0,0-17-42.57,95.5,95.5,0,0,1-17.2,9.26c4.4,11.92,7.06,23.82,7.5,33.31Zm-26.69,6.62c-.23,9.26-2.87,21.39-7.5,33.31a95.5,95.5,0,0,1,17.2,9.26,67.07,67.07,0,0,0,17-42.57Z"/></svg>