<svg xmlns="http://www.w3.org/2000/svg" xmlns:xlink="http://www.w3.org/1999/xlink" viewBox="0 0 317.16 123.22"><defs><style>.cls-1,.cls-2{fill-rule:evenodd;}.cls-1{fill:url(#linear-gradient);}.cls-2{fill:url(#linear-gradient-2);}</style><linearGradient id="linear-gradient" x1="153.01" y1="62.95" x2="317.16" y2="62.95" gradientUnits="userSpaceOnUse"><stop offset="0" stop-color="#0d3133"/><stop offset="0.75" stop-color="#1caaaa"/></linearGradient><linearGradient id="linear-gradient-2" x1="0" y1="60.78" x2="163.69" y2="60.78" xlink:href="#linear-gradient"/></defs><title>Layer 1</title><g id="Layer_2" data-name="Layer 2"><g id="Layer_1-2" data-name="Layer 1"><path class="cls-1" d="M206.29,123.15v-22.8h39.36l21.84-.24c19-3.9,26.64-16.66,26.64-40.08,0-7.19-.78-12.67-3.36-17.28-11.09-19.85-29.34-17.52-59.52-17.52-9.65,0-21.83-1.4-30.24.72-14.78,3.73-25.3,15.18-25.2,33.84L153,59.55v-.24l.24-7,2.16-10.8c4.6-14.71,14.18-25.27,26.4-32.4,11.33-6.6,27.14-6.48,45.6-6.48l42,.24c19.95,3.65,32.62,13.92,41.28,28.8A48.72,48.72,0,0,1,316.93,55c.06,7.68.79,16.68-.72,23.28-5.11,22.31-19.32,37.56-40.8,43.44-7.23,2-17,1.44-26.16,1.44Z"/><path class="cls-2" d="M110.64.18V23H71.52l-21.84.24c-19.4,4-27.14,17-27.12,40.8,0,6.29,1,11.55,3.12,15.84C36.27,100.94,56.74,98.1,87.6,98.1c11.63,0,25.31,1.05,33.6-2.4,9.57-4,16.56-12.34,19.2-23.28l.72-8.88,22.56.24c.43,31.09-18.58,49.78-43.2,55.92-9.68,2.41-23.31,1.2-34.8,1.2-11.9,0-28.1,1.78-38.88-.48C29,116.68,16.08,108,7.92,94.74,3.89,88.17,1.58,80.53,0,71.46V58.74C0,25.75,18,6.86,44.88.9c6.49-1.44,15-.72,22.56-.72Z"/></g></g></svg>