<svg xmlns="http://www.w3.org/2000/svg" xmlns:xlink="http://www.w3.org/1999/xlink" viewBox="0 0 306.95 132.43"><defs><style>.cls-1{isolation:isolate;}.cls-2{opacity:0.37;mix-blend-mode:soft-light;}.cls-3,.cls-4{fill-rule:evenodd;}.cls-3{fill:url(#linear-gradient);}.cls-4{fill:url(#linear-gradient-2);}</style><linearGradient id="linear-gradient" x1="142.8" y1="60.27" x2="306.95" y2="60.27" gradientUnits="userSpaceOnUse"><stop offset="0.01" stop-color="#3cc0c4"/><stop offset="0.95" stop-color="#435aa8"/></linearGradient><linearGradient id="linear-gradient-2" x1="0" y1="71.64" x2="163.69" y2="71.64" xlink:href="#linear-gradient"/></defs><title>Layer 1 copy 2</title><g class="cls-1"><g id="Layer_2" data-name="Layer 2"><g id="Layer_1_copy_2" data-name="Layer 1 copy 2" class="cls-2"><path class="cls-3" d="M196.08,120.48V97.68h39.36l21.84-.24c19-3.9,26.64-16.66,26.64-40.08,0-7.19-.78-12.67-3.36-17.28C269.46,20.23,251.22,22.56,221,22.56c-9.65,0-21.83-1.4-30.24.72C176,27,165.5,38.46,165.6,57.12l-22.8-.24v-.24l.24-7,2.16-10.8c4.59-14.71,14.17-25.27,26.4-32.4C182.93-.12,198.74,0,217.2,0l42,.24c19.95,3.64,32.61,13.92,41.28,28.8a48.66,48.66,0,0,1,6.24,23.28c.06,7.68.79,16.68-.72,23.28-5.11,22.31-19.32,37.56-40.8,43.44-7.23,2-17,1.44-26.16,1.44Z"/><path class="cls-4" d="M110.64,11v22.8H71.52l-21.84.24c-19.4,4-27.14,17-27.12,40.8,0,6.29,1,11.55,3.12,15.84C36.27,111.8,56.74,109,87.6,109c11.63,0,25.31,1.05,33.6-2.4,9.57-4,16.56-12.34,19.2-23.28l.72-8.88,22.56.24c.43,31.09-18.58,49.78-43.2,55.92-9.68,2.41-23.31,1.2-34.8,1.2-11.9,0-28.1,1.78-38.88-.48C29,127.54,16.08,118.9,7.92,105.6,3.89,99,1.58,91.39,0,82.32V69.6c0-33,18-51.88,44.88-57.84,6.49-1.44,15-.72,22.56-.72Z"/></g></g></g></svg>